{
	"patcher" : 	{
		"fileversion" : 1,
		"appversion" : 		{
			"major" : 5,
			"minor" : 1,
			"revision" : 9
		}
,
		"rect" : [ 409.0, 89.0, 376.0, 267.0 ],
		"bgcolor" : [ 0.061065, 0.042612, 0.345194, 1.0 ],
		"bglocked" : 0,
		"defrect" : [ 409.0, 89.0, 376.0, 267.0 ],
		"openrect" : [ 409.0, 89.0, 376.0, 267.0 ],
		"openinpresentation" : 1,
		"default_fontsize" : 12.0,
		"default_fontface" : 0,
		"default_fontname" : "Arial",
		"gridonopen" : 0,
		"gridsize" : [ 15.0, 15.0 ],
		"gridsnaponopen" : 0,
		"toolbarvisible" : 0,
		"boxanimatetime" : 200,
		"imprint" : 0,
		"enablehscroll" : 1,
		"enablevscroll" : 1,
		"devicewidth" : 0.0,
		"boxes" : [ 			{
				"box" : 				{
					"maxclass" : "textbutton",
					"bordercolor" : [ 0.0, 0.0, 0.0, 0.0 ],
					"presentation" : 1,
					"id" : "obj-61",
					"fontname" : "Arial",
					"textcolor" : [ 1.0, 1.0, 1.0, 1.0 ],
					"bgoveroncolor" : [ 0.0, 0.0, 0.0, 0.0 ],
					"text" : "8",
					"bgoncolor" : [ 0.0, 0.0, 0.0, 0.0 ],
					"numinlets" : 1,
					"fontface" : 1,
					"fontsize" : 14.0,
					"numoutlets" : 3,
					"presentation_rect" : [ 272.0, 200.0, 26.0, 25.0 ],
					"textovercolor" : [ 1.0, 1.0, 1.0, 1.0 ],
					"borderoncolor" : [ 0.0, 0.0, 0.0, 0.403922 ],
					"outlettype" : [ "", "", "int" ],
					"bgovercolor" : [ 0.0, 0.0, 0.0, 0.0 ],
					"patching_rect" : [ 173.0, 782.0, 28.0, 21.0 ],
					"bgcolor" : [ 0.0, 0.0, 0.0, 0.0 ]
				}

			}
, 			{
				"box" : 				{
					"maxclass" : "textbutton",
					"bordercolor" : [ 0.0, 0.0, 0.0, 0.0 ],
					"presentation" : 1,
					"id" : "obj-60",
					"fontname" : "Arial",
					"textcolor" : [ 1.0, 1.0, 1.0, 1.0 ],
					"bgoveroncolor" : [ 0.0, 0.0, 0.0, 0.0 ],
					"text" : "1",
					"bgoncolor" : [ 0.0, 0.0, 0.0, 0.0 ],
					"numinlets" : 1,
					"fontface" : 1,
					"fontsize" : 14.0,
					"numoutlets" : 3,
					"presentation_rect" : [ 35.693481, 200.0, 25.0, 25.0 ],
					"textovercolor" : [ 1.0, 1.0, 1.0, 1.0 ],
					"borderoncolor" : [ 0.0, 0.0, 0.0, 0.403922 ],
					"outlettype" : [ "", "", "int" ],
					"bgovercolor" : [ 0.0, 0.0, 0.0, 0.0 ],
					"patching_rect" : [ 124.0, 809.0, 23.0, 21.0 ],
					"bgcolor" : [ 0.0, 0.0, 0.0, 0.0 ]
				}

			}
, 			{
				"box" : 				{
					"maxclass" : "textbutton",
					"bordercolor" : [ 0.0, 0.0, 0.0, 0.0 ],
					"presentation" : 1,
					"id" : "obj-2",
					"fontname" : "Arial",
					"textcolor" : [ 0.0, 0.0, 0.0, 1.0 ],
					"bgoveroncolor" : [ 0.0, 0.0, 0.0, 0.0 ],
					"text" : "1",
					"bgoncolor" : [ 0.0, 0.0, 0.0, 0.0 ],
					"numinlets" : 1,
					"fontface" : 1,
					"fontsize" : 14.0,
					"textoncolor" : [ 0.0, 0.0, 0.0, 1.0 ],
					"numoutlets" : 3,
					"presentation_rect" : [ 34.693481, 199.0, 25.0, 25.0 ],
					"textovercolor" : [ 1.0, 1.0, 1.0, 1.0 ],
					"borderoncolor" : [ 0.0, 0.0, 0.0, 0.403922 ],
					"outlettype" : [ "", "", "int" ],
					"bgovercolor" : [ 0.0, 0.0, 0.0, 0.0 ],
					"patching_rect" : [ 109.0, 794.0, 23.0, 21.0 ],
					"bgcolor" : [ 0.0, 0.0, 0.0, 0.0 ]
				}

			}
, 			{
				"box" : 				{
					"maxclass" : "textbutton",
					"bordercolor" : [ 0.0, 0.0, 0.0, 0.0 ],
					"presentation" : 1,
					"id" : "obj-28",
					"fontname" : "Arial",
					"textcolor" : [ 0.0, 0.0, 0.0, 1.0 ],
					"bgoveroncolor" : [ 0.0, 0.0, 0.0, 0.0 ],
					"text" : "8",
					"bgoncolor" : [ 0.0, 0.0, 0.0, 0.0 ],
					"numinlets" : 1,
					"fontface" : 1,
					"fontsize" : 14.0,
					"textoncolor" : [ 0.0, 0.0, 0.0, 1.0 ],
					"numoutlets" : 3,
					"presentation_rect" : [ 271.0, 199.0, 26.0, 25.0 ],
					"textovercolor" : [ 1.0, 1.0, 1.0, 1.0 ],
					"borderoncolor" : [ 0.0, 0.0, 0.0, 0.403922 ],
					"outlettype" : [ "", "", "int" ],
					"bgovercolor" : [ 0.0, 0.0, 0.0, 0.0 ],
					"patching_rect" : [ 158.0, 767.0, 28.0, 21.0 ],
					"bgcolor" : [ 0.0, 0.0, 0.0, 0.0 ]
				}

			}
, 			{
				"box" : 				{
					"maxclass" : "textbutton",
					"bordercolor" : [ 0.0, 0.0, 0.0, 0.0 ],
					"presentation" : 1,
					"id" : "obj-68",
					"fontname" : "Arial",
					"textcolor" : [ 1.0, 1.0, 1.0, 1.0 ],
					"bgoveroncolor" : [ 0.0, 0.0, 0.0, 0.0 ],
					"text" : "1",
					"bgoncolor" : [ 0.0, 0.0, 0.0, 0.0 ],
					"numinlets" : 1,
					"fontface" : 1,
					"fontsize" : 14.0,
					"numoutlets" : 3,
					"presentation_rect" : [ 301.0, 54.25, 27.0, 25.0 ],
					"textovercolor" : [ 1.0, 1.0, 1.0, 1.0 ],
					"borderoncolor" : [ 0.0, 0.0, 0.0, 0.403922 ],
					"outlettype" : [ "", "", "int" ],
					"bgovercolor" : [ 0.0, 0.0, 0.0, 0.0 ],
					"patching_rect" : [ 1035.0, 524.0, 28.0, 21.0 ],
					"bgcolor" : [ 0.0, 0.0, 0.0, 0.0 ]
				}

			}
, 			{
				"box" : 				{
					"maxclass" : "textbutton",
					"bordercolor" : [ 0.0, 0.0, 0.0, 0.0 ],
					"presentation" : 1,
					"id" : "obj-87",
					"fontname" : "Arial",
					"textcolor" : [ 1.0, 1.0, 1.0, 1.0 ],
					"bgoveroncolor" : [ 0.0, 0.0, 0.0, 0.0 ],
					"text" : "6",
					"bgoncolor" : [ 0.0, 0.0, 0.0, 0.0 ],
					"numinlets" : 1,
					"fontface" : 1,
					"fontsize" : 14.0,
					"numoutlets" : 3,
					"presentation_rect" : [ 247.0, 99.0, 26.0, 25.0 ],
					"textovercolor" : [ 1.0, 1.0, 1.0, 1.0 ],
					"borderoncolor" : [ 0.0, 0.0, 0.0, 0.403922 ],
					"outlettype" : [ "", "", "int" ],
					"bgovercolor" : [ 0.0, 0.0, 0.0, 0.0 ],
					"patching_rect" : [ 1035.0, 644.0, 28.0, 21.0 ],
					"bgcolor" : [ 0.0, 0.0, 0.0, 0.0 ]
				}

			}
, 			{
				"box" : 				{
					"maxclass" : "textbutton",
					"bordercolor" : [ 0.0, 0.0, 0.0, 0.0 ],
					"presentation" : 1,
					"id" : "obj-98",
					"fontname" : "Arial",
					"textcolor" : [ 1.0, 1.0, 1.0, 1.0 ],
					"bgoveroncolor" : [ 0.0, 0.0, 0.0, 0.0 ],
					"text" : "54",
					"bgoncolor" : [ 0.0, 0.0, 0.0, 0.0 ],
					"numinlets" : 1,
					"fontface" : 1,
					"fontsize" : 14.0,
					"numoutlets" : 3,
					"presentation_rect" : [ 36.0, 71.0, 29.0, 25.0 ],
					"textovercolor" : [ 1.0, 1.0, 1.0, 1.0 ],
					"align" : 0,
					"borderoncolor" : [ 0.0, 0.0, 0.0, 0.403922 ],
					"outlettype" : [ "", "", "int" ],
					"bgovercolor" : [ 0.0, 0.0, 0.0, 0.0 ],
					"patching_rect" : [ 1032.0, 405.0, 28.0, 21.0 ],
					"bgcolor" : [ 0.0, 0.0, 0.0, 0.0 ]
				}

			}
, 			{
				"box" : 				{
					"maxclass" : "textbutton",
					"bordercolor" : [ 0.0, 0.0, 0.0, 0.0 ],
					"presentation" : 1,
					"id" : "obj-84",
					"fontname" : "Arial",
					"textcolor" : [ 0.0, 0.0, 0.0, 1.0 ],
					"bgoveroncolor" : [ 0.0, 0.0, 0.0, 0.0 ],
					"text" : "1",
					"bgoncolor" : [ 0.0, 0.0, 0.0, 0.0 ],
					"numinlets" : 1,
					"fontface" : 1,
					"fontsize" : 14.0,
					"numoutlets" : 3,
					"presentation_rect" : [ 300.0, 53.25, 27.0, 25.0 ],
					"textovercolor" : [ 1.0, 1.0, 1.0, 1.0 ],
					"borderoncolor" : [ 0.0, 0.0, 0.0, 0.403922 ],
					"outlettype" : [ "", "", "int" ],
					"bgovercolor" : [ 0.0, 0.0, 0.0, 0.0 ],
					"patching_rect" : [ 1020.0, 509.0, 28.0, 21.0 ],
					"bgcolor" : [ 0.0, 0.0, 0.0, 0.0 ]
				}

			}
, 			{
				"box" : 				{
					"maxclass" : "textbutton",
					"bordercolor" : [ 0.0, 0.0, 0.0, 0.0 ],
					"presentation" : 1,
					"id" : "obj-93",
					"fontname" : "Arial",
					"textcolor" : [ 0.0, 0.0, 0.0, 1.0 ],
					"bgoveroncolor" : [ 0.0, 0.0, 0.0, 0.0 ],
					"text" : "6",
					"bgoncolor" : [ 0.0, 0.0, 0.0, 0.0 ],
					"numinlets" : 1,
					"fontface" : 1,
					"fontsize" : 14.0,
					"numoutlets" : 3,
					"presentation_rect" : [ 246.0, 98.0, 26.0, 25.0 ],
					"textovercolor" : [ 1.0, 1.0, 1.0, 1.0 ],
					"borderoncolor" : [ 0.0, 0.0, 0.0, 0.403922 ],
					"outlettype" : [ "", "", "int" ],
					"bgovercolor" : [ 0.0, 0.0, 0.0, 0.0 ],
					"patching_rect" : [ 1020.0, 629.0, 28.0, 21.0 ],
					"bgcolor" : [ 0.0, 0.0, 0.0, 0.0 ]
				}

			}
, 			{
				"box" : 				{
					"maxclass" : "textbutton",
					"bordercolor" : [ 0.0, 0.0, 0.0, 0.0 ],
					"presentation" : 1,
					"id" : "obj-75",
					"fontname" : "Arial",
					"textcolor" : [ 0.0, 0.0, 0.0, 1.0 ],
					"bgoveroncolor" : [ 0.0, 0.0, 0.0, 0.0 ],
					"text" : "54",
					"bgoncolor" : [ 0.0, 0.0, 0.0, 0.0 ],
					"numinlets" : 1,
					"fontface" : 1,
					"fontsize" : 14.0,
					"numoutlets" : 3,
					"presentation_rect" : [ 34.0, 70.0, 29.0, 25.0 ],
					"textovercolor" : [ 1.0, 1.0, 1.0, 1.0 ],
					"align" : 0,
					"borderoncolor" : [ 0.0, 0.0, 0.0, 0.403922 ],
					"outlettype" : [ "", "", "int" ],
					"bgovercolor" : [ 0.0, 0.0, 0.0, 0.0 ],
					"patching_rect" : [ 1017.0, 390.0, 28.0, 21.0 ],
					"bgcolor" : [ 0.0, 0.0, 0.0, 0.0 ]
				}

			}
, 			{
				"box" : 				{
					"maxclass" : "textbutton",
					"bordercolor" : [ 0.0, 0.0, 0.0, 0.0 ],
					"presentation" : 1,
					"id" : "obj-66",
					"fontname" : "Arial",
					"textcolor" : [ 1.0, 1.0, 1.0, 1.0 ],
					"bgoveroncolor" : [ 0.0, 0.0, 0.0, 0.0 ],
					"text" : "1",
					"bgoncolor" : [ 0.0, 0.0, 0.0, 0.0 ],
					"numinlets" : 1,
					"fontface" : 1,
					"fontsize" : 14.0,
					"numoutlets" : 3,
					"presentation_rect" : [ 37.0, 100.0, 24.0, 25.0 ],
					"textovercolor" : [ 1.0, 1.0, 1.0, 1.0 ],
					"borderoncolor" : [ 0.0, 0.0, 0.0, 0.403922 ],
					"outlettype" : [ "", "", "int" ],
					"bgovercolor" : [ 0.0, 0.0, 0.0, 0.0 ],
					"patching_rect" : [ 695.0, 740.0, 23.0, 21.0 ],
					"bgcolor" : [ 0.0, 0.0, 0.0, 0.0 ]
				}

			}
, 			{
				"box" : 				{
					"maxclass" : "textbutton",
					"bordercolor" : [ 0.0, 0.0, 0.0, 0.0 ],
					"presentation" : 1,
					"id" : "obj-96",
					"fontname" : "Arial",
					"textcolor" : [ 1.0, 1.0, 1.0, 1.0 ],
					"bgoveroncolor" : [ 0.0, 0.0, 0.0, 0.0 ],
					"text" : "0.10",
					"bgoncolor" : [ 0.0, 0.0, 0.0, 0.0 ],
					"numinlets" : 1,
					"fontface" : 1,
					"fontsize" : 14.0,
					"numoutlets" : 3,
					"presentation_rect" : [ 300.0, 200.0, 30.0, 25.0 ],
					"textovercolor" : [ 1.0, 1.0, 1.0, 1.0 ],
					"borderoncolor" : [ 0.0, 0.0, 0.0, 0.403922 ],
					"outlettype" : [ "", "", "int" ],
					"bgovercolor" : [ 0.0, 0.0, 0.0, 0.0 ],
					"patching_rect" : [ 695.0, 582.0, 23.0, 21.0 ],
					"bgcolor" : [ 0.0, 0.0, 0.0, 0.0 ]
				}

			}
, 			{
				"box" : 				{
					"maxclass" : "textbutton",
					"bordercolor" : [ 0.0, 0.0, 0.0, 0.0 ],
					"presentation" : 1,
					"id" : "obj-94",
					"fontname" : "Arial",
					"textcolor" : [ 0.0, 0.0, 0.0, 1.0 ],
					"bgoveroncolor" : [ 0.0, 0.0, 0.0, 0.0 ],
					"text" : "1",
					"bgoncolor" : [ 0.0, 0.0, 0.0, 0.0 ],
					"numinlets" : 1,
					"fontface" : 1,
					"fontsize" : 14.0,
					"numoutlets" : 3,
					"presentation_rect" : [ 35.0, 99.0, 24.0, 25.0 ],
					"textovercolor" : [ 1.0, 1.0, 1.0, 1.0 ],
					"borderoncolor" : [ 0.0, 0.0, 0.0, 0.403922 ],
					"outlettype" : [ "", "", "int" ],
					"bgovercolor" : [ 0.0, 0.0, 0.0, 0.0 ],
					"patching_rect" : [ 680.0, 725.0, 23.0, 21.0 ],
					"bgcolor" : [ 0.0, 0.0, 0.0, 0.0 ]
				}

			}
, 			{
				"box" : 				{
					"maxclass" : "textbutton",
					"bordercolor" : [ 0.0, 0.0, 0.0, 0.0 ],
					"presentation" : 1,
					"id" : "obj-85",
					"fontname" : "Arial",
					"textcolor" : [ 0.0, 0.0, 0.0, 1.0 ],
					"bgoveroncolor" : [ 0.0, 0.0, 0.0, 0.0 ],
					"text" : "0.10",
					"bgoncolor" : [ 0.0, 0.0, 0.0, 0.0 ],
					"numinlets" : 1,
					"fontface" : 1,
					"fontsize" : 14.0,
					"numoutlets" : 3,
					"presentation_rect" : [ 298.0, 199.0, 30.0, 25.0 ],
					"textovercolor" : [ 1.0, 1.0, 1.0, 1.0 ],
					"borderoncolor" : [ 0.0, 0.0, 0.0, 0.403922 ],
					"outlettype" : [ "", "", "int" ],
					"bgovercolor" : [ 0.0, 0.0, 0.0, 0.0 ],
					"patching_rect" : [ 680.0, 567.0, 23.0, 21.0 ],
					"bgcolor" : [ 0.0, 0.0, 0.0, 0.0 ]
				}

			}
, 			{
				"box" : 				{
					"maxclass" : "textbutton",
					"bordercolor" : [ 0.0, 0.0, 0.0, 0.0 ],
					"presentation" : 1,
					"id" : "obj-99",
					"fontname" : "Arial",
					"textcolor" : [ 1.0, 1.0, 1.0, 1.0 ],
					"bgoveroncolor" : [ 0.0, 0.0, 0.0, 0.0 ],
					"text" : "1",
					"bgoncolor" : [ 0.0, 0.0, 0.0, 0.0 ],
					"numinlets" : 1,
					"fontface" : 1,
					"fontsize" : 14.0,
					"numoutlets" : 3,
					"presentation_rect" : [ 243.0, 70.0, 30.0, 25.0 ],
					"textovercolor" : [ 1.0, 1.0, 1.0, 1.0 ],
					"align" : 2,
					"borderoncolor" : [ 0.0, 0.0, 0.0, 0.403922 ],
					"outlettype" : [ "", "", "int" ],
					"bgovercolor" : [ 0.0, 0.0, 0.0, 0.0 ],
					"patching_rect" : [ 677.0, 475.0, 23.0, 21.0 ],
					"bgcolor" : [ 0.0, 0.0, 0.0, 0.0 ]
				}

			}
, 			{
				"box" : 				{
					"maxclass" : "textbutton",
					"bordercolor" : [ 0.0, 0.0, 0.0, 0.0 ],
					"presentation" : 1,
					"id" : "obj-76",
					"fontname" : "Arial",
					"textcolor" : [ 0.0, 0.0, 0.0, 1.0 ],
					"bgoveroncolor" : [ 0.0, 0.0, 0.0, 0.0 ],
					"text" : "1",
					"bgoncolor" : [ 0.0, 0.0, 0.0, 0.0 ],
					"numinlets" : 1,
					"fontface" : 1,
					"fontsize" : 14.0,
					"numoutlets" : 3,
					"presentation_rect" : [ 242.0, 69.0, 30.0, 25.0 ],
					"textovercolor" : [ 1.0, 1.0, 1.0, 1.0 ],
					"align" : 2,
					"borderoncolor" : [ 0.0, 0.0, 0.0, 0.403922 ],
					"outlettype" : [ "", "", "int" ],
					"bgovercolor" : [ 0.0, 0.0, 0.0, 0.0 ],
					"patching_rect" : [ 662.0, 460.0, 23.0, 21.0 ],
					"bgcolor" : [ 0.0, 0.0, 0.0, 0.0 ]
				}

			}
, 			{
				"box" : 				{
					"maxclass" : "comment",
					"text" : "2",
					"frgb" : [ 0.443137, 0.0, 0.67451, 1.0 ],
					"presentation" : 1,
					"id" : "obj-26",
					"fontname" : "Arial",
					"textcolor" : [ 0.443137, 0.0, 0.67451, 1.0 ],
					"numinlets" : 1,
					"fontface" : 1,
					"fontsize" : 16.0,
					"numoutlets" : 0,
					"presentation_rect" : [ 303.0, 30.0, 23.0, 25.0 ],
					"patching_rect" : [ 496.0, 794.0, 34.0, 25.0 ],
					"bgcolor" : [ 1.0, 1.0, 1.0, 1.0 ]
				}

			}
, 			{
				"box" : 				{
					"maxclass" : "comment",
					"text" : "3",
					"frgb" : [ 0.443137, 0.0, 0.67451, 1.0 ],
					"presentation" : 1,
					"id" : "obj-24",
					"fontname" : "Arial",
					"textcolor" : [ 0.443137, 0.0, 0.67451, 1.0 ],
					"numinlets" : 1,
					"fontface" : 1,
					"fontsize" : 16.0,
					"numoutlets" : 0,
					"presentation_rect" : [ 273.0, 99.0, 23.0, 25.0 ],
					"patching_rect" : [ 468.0, 853.0, 34.0, 25.0 ],
					"bgcolor" : [ 1.0, 1.0, 1.0, 1.0 ]
				}

			}
, 			{
				"box" : 				{
					"maxclass" : "comment",
					"text" : "1",
					"frgb" : [ 0.443137, 0.0, 0.67451, 1.0 ],
					"presentation" : 1,
					"id" : "obj-23",
					"fontname" : "Arial",
					"textcolor" : [ 0.443137, 0.0, 0.67451, 1.0 ],
					"numinlets" : 1,
					"fontface" : 1,
					"fontsize" : 16.0,
					"numoutlets" : 0,
					"presentation_rect" : [ 273.0, 70.0, 23.0, 25.0 ],
					"patching_rect" : [ 386.0, 417.0, 34.0, 25.0 ],
					"bgcolor" : [ 1.0, 1.0, 1.0, 1.0 ]
				}

			}
, 			{
				"box" : 				{
					"maxclass" : "message",
					"text" : "+",
					"presentation" : 1,
					"id" : "obj-33",
					"fontname" : "Arial",
					"textcolor" : [ 1.0, 1.0, 1.0, 1.0 ],
					"bgcolor2" : [ 1.0, 1.0, 1.0, 1.0 ],
					"numinlets" : 2,
					"fontface" : 1,
					"fontsize" : 18.0,
					"numoutlets" : 1,
					"presentation_rect" : [ 275.0, 172.0, 32.5, 25.0 ],
					"outlettype" : [ "" ],
					"patching_rect" : [ 272.0, 594.0, 53.0, 25.0 ],
					"bgcolor" : [ 0.0, 0.0, 0.0, 0.0 ]
				}

			}
, 			{
				"box" : 				{
					"maxclass" : "message",
					"text" : "-",
					"presentation" : 1,
					"id" : "obj-53",
					"fontname" : "Arial",
					"textcolor" : [ 1.0, 1.0, 1.0, 1.0 ],
					"bgcolor2" : [ 1.0, 1.0, 1.0, 1.0 ],
					"numinlets" : 2,
					"fontface" : 1,
					"fontsize" : 18.0,
					"numoutlets" : 1,
					"presentation_rect" : [ 38.0, 170.0, 23.0, 25.0 ],
					"outlettype" : [ "" ],
					"patching_rect" : [ 86.0, 595.0, 54.0, 25.0 ],
					"bgcolor" : [ 0.0, 0.0, 0.0, 0.0 ]
				}

			}
, 			{
				"box" : 				{
					"maxclass" : "message",
					"text" : "space",
					"presentation" : 1,
					"id" : "obj-77",
					"fontname" : "Arial",
					"textcolor" : [ 1.0, 1.0, 1.0, 1.0 ],
					"bgcolor2" : [ 1.0, 1.0, 1.0, 1.0 ],
					"numinlets" : 2,
					"fontface" : 1,
					"fontsize" : 18.0,
					"numoutlets" : 1,
					"presentation_rect" : [ 137.5, 170.0, 75.0, 25.0 ],
					"outlettype" : [ "" ],
					"patching_rect" : [ 173.0, 575.0, 70.0, 25.0 ],
					"bgcolor" : [ 0.0, 0.0, 0.0, 0.0 ]
				}

			}
, 			{
				"box" : 				{
					"maxclass" : "textbutton",
					"bordercolor" : [ 0.0, 0.0, 0.0, 0.0 ],
					"presentation" : 1,
					"id" : "obj-86",
					"fontname" : "Arial",
					"textcolor" : [ 1.0, 1.0, 1.0, 1.0 ],
					"bgoveroncolor" : [ 0.0, 0.0, 0.0, 0.0 ],
					"text" : "nb of events",
					"bgoncolor" : [ 0.0, 0.0, 0.0, 0.0 ],
					"numinlets" : 1,
					"fontface" : 1,
					"fontsize" : 18.0,
					"numoutlets" : 3,
					"presentation_rect" : [ 63.0, 199.0, 207.693481, 25.0 ],
					"textovercolor" : [ 1.0, 1.0, 1.0, 1.0 ],
					"borderoncolor" : [ 0.0, 0.0, 0.0, 0.0 ],
					"outlettype" : [ "", "", "int" ],
					"bgovercolor" : [ 0.0, 0.0, 0.0, 0.0 ],
					"patching_rect" : [ 225.0, 644.870789, 143.0, 21.0 ],
					"bgcolor" : [ 0.0, 0.0, 0.0, 0.0 ]
				}

			}
, 			{
				"box" : 				{
					"maxclass" : "textbutton",
					"bordercolor" : [ 0.0, 0.0, 0.0, 0.0 ],
					"presentation" : 1,
					"id" : "obj-95",
					"fontname" : "Arial",
					"textcolor" : [ 1.0, 1.0, 1.0, 1.0 ],
					"bgoveroncolor" : [ 0.0, 0.0, 0.0, 0.0 ],
					"text" : "loudspeaker",
					"bgoncolor" : [ 0.0, 0.0, 0.0, 0.0 ],
					"numinlets" : 1,
					"fontface" : 1,
					"fontsize" : 18.0,
					"numoutlets" : 3,
					"presentation_rect" : [ 64.0, 100.0, 184.0, 25.0 ],
					"textovercolor" : [ 1.0, 1.0, 1.0, 1.0 ],
					"borderoncolor" : [ 0.0, 0.0, 0.0, 0.0 ],
					"outlettype" : [ "", "", "int" ],
					"bgovercolor" : [ 0.0, 0.0, 0.0, 0.0 ],
					"patching_rect" : [ 854.0, 645.870789, 143.0, 21.0 ],
					"bgcolor" : [ 0.0, 0.0, 0.0, 0.0 ]
				}

			}
, 			{
				"box" : 				{
					"maxclass" : "textbutton",
					"bordercolor" : [ 0.0, 0.0, 0.0, 0.0 ],
					"presentation" : 1,
					"id" : "obj-100",
					"fontname" : "Arial",
					"textcolor" : [ 1.0, 1.0, 1.0, 1.0 ],
					"bgoveroncolor" : [ 0.0, 0.0, 0.0, 0.0 ],
					"text" : "sound duration",
					"bgoncolor" : [ 0.0, 0.0, 0.0, 0.0 ],
					"numinlets" : 1,
					"fontface" : 1,
					"fontsize" : 18.0,
					"numoutlets" : 3,
					"presentation_rect" : [ 122.0, 33.0, 177.0, 24.0 ],
					"textovercolor" : [ 1.0, 1.0, 1.0, 1.0 ],
					"align" : 2,
					"borderoncolor" : [ 0.0, 0.0, 0.0, 0.0 ],
					"outlettype" : [ "", "", "int" ],
					"bgovercolor" : [ 0.0, 0.0, 0.0, 0.0 ],
					"patching_rect" : [ 854.0, 526.870789, 143.0, 21.0 ],
					"bgcolor" : [ 0.0, 0.0, 0.0, 0.0 ]
				}

			}
, 			{
				"box" : 				{
					"maxclass" : "textbutton",
					"bordercolor" : [ 0.0, 0.0, 0.0, 0.0 ],
					"presentation" : 1,
					"id" : "obj-101",
					"fontname" : "Arial",
					"textcolor" : [ 1.0, 1.0, 1.0, 1.0 ],
					"bgoveroncolor" : [ 0.0, 0.0, 0.0, 0.0 ],
					"text" : "type of sound",
					"bgoncolor" : [ 0.0, 0.0, 0.0, 0.0 ],
					"numinlets" : 1,
					"fontface" : 1,
					"fontsize" : 18.0,
					"numoutlets" : 3,
					"presentation_rect" : [ 64.0, 70.0, 184.0, 25.0 ],
					"textovercolor" : [ 1.0, 1.0, 1.0, 1.0 ],
					"borderoncolor" : [ 0.0, 0.0, 0.0, 0.0 ],
					"outlettype" : [ "", "", "int" ],
					"bgovercolor" : [ 0.0, 0.0, 0.0, 0.0 ],
					"patching_rect" : [ 851.0, 407.870789, 143.0, 21.0 ],
					"bgcolor" : [ 0.0, 0.0, 0.0, 0.0 ]
				}

			}
, 			{
				"box" : 				{
					"maxclass" : "textbutton",
					"bordercolor" : [ 0.0, 0.0, 0.0, 0.0 ],
					"presentation" : 1,
					"id" : "obj-62",
					"fontname" : "Arial",
					"textcolor" : [ 1.0, 1.0, 1.0, 1.0 ],
					"bgoveroncolor" : [ 0.0, 0.0, 0.0, 0.0 ],
					"text" : "blue_birds - Mode A",
					"bgoncolor" : [ 0.0, 0.0, 0.0, 0.0 ],
					"numinlets" : 1,
					"fontface" : 1,
					"fontsize" : 18.0,
					"numoutlets" : 3,
					"presentation_rect" : [ 61.0, 135.5, 206.0, 19.0 ],
					"textovercolor" : [ 1.0, 1.0, 1.0, 1.0 ],
					"borderoncolor" : [ 0.0, 0.0, 0.0, 0.403922 ],
					"outlettype" : [ "", "", "int" ],
					"bgovercolor" : [ 0.0, 0.0, 0.0, 0.0 ],
					"patching_rect" : [ 393.0, 698.611511, 184.0, 29.217392 ],
					"bgcolor" : [ 0.0, 0.0, 0.0, 0.0 ]
				}

			}
, 			{
				"box" : 				{
					"maxclass" : "message",
					"text" : "+",
					"presentation" : 1,
					"id" : "obj-58",
					"fontname" : "Arial",
					"bgcolor2" : [ 1.0, 1.0, 1.0, 1.0 ],
					"numinlets" : 2,
					"fontface" : 1,
					"fontsize" : 18.0,
					"numoutlets" : 1,
					"presentation_rect" : [ 277.0, 173.0, 32.5, 25.0 ],
					"outlettype" : [ "" ],
					"patching_rect" : [ 257.0, 579.0, 53.0, 25.0 ],
					"bgcolor" : [ 0.0, 0.0, 0.0, 0.0 ]
				}

			}
, 			{
				"box" : 				{
					"maxclass" : "message",
					"text" : "-",
					"presentation" : 1,
					"id" : "obj-57",
					"fontname" : "Arial",
					"bgcolor2" : [ 1.0, 1.0, 1.0, 1.0 ],
					"numinlets" : 2,
					"fontface" : 1,
					"fontsize" : 18.0,
					"numoutlets" : 1,
					"presentation_rect" : [ 40.0, 172.0, 23.0, 25.0 ],
					"outlettype" : [ "" ],
					"patching_rect" : [ 71.0, 580.0, 54.0, 25.0 ],
					"bgcolor" : [ 0.0, 0.0, 0.0, 0.0 ]
				}

			}
, 			{
				"box" : 				{
					"maxclass" : "message",
					"text" : "space",
					"presentation" : 1,
					"id" : "obj-55",
					"fontname" : "Arial",
					"bgcolor2" : [ 1.0, 1.0, 1.0, 1.0 ],
					"numinlets" : 2,
					"fontface" : 1,
					"fontsize" : 18.0,
					"numoutlets" : 1,
					"presentation_rect" : [ 136.5, 168.0, 75.0, 25.0 ],
					"outlettype" : [ "" ],
					"patching_rect" : [ 158.0, 560.0, 70.0, 25.0 ],
					"bgcolor" : [ 0.0, 0.0, 0.0, 0.0 ]
				}

			}
, 			{
				"box" : 				{
					"maxclass" : "textbutton",
					"bordercolor" : [ 0.0, 0.0, 0.0, 0.0 ],
					"presentation" : 1,
					"id" : "obj-45",
					"fontname" : "Arial",
					"textcolor" : [ 0.0, 0.0, 0.0, 1.0 ],
					"bgoveroncolor" : [ 0.0, 0.0, 0.0, 0.0 ],
					"text" : "nb of events",
					"bgoncolor" : [ 0.0, 0.0, 0.0, 0.0 ],
					"numinlets" : 1,
					"fontface" : 1,
					"fontsize" : 18.0,
					"numoutlets" : 3,
					"presentation_rect" : [ 61.0, 196.5, 207.693481, 25.0 ],
					"textovercolor" : [ 1.0, 1.0, 1.0, 1.0 ],
					"borderoncolor" : [ 0.0, 0.0, 0.0, 0.0 ],
					"outlettype" : [ "", "", "int" ],
					"bgovercolor" : [ 0.0, 0.0, 0.0, 0.0 ],
					"patching_rect" : [ 210.0, 629.870789, 143.0, 21.0 ],
					"bgcolor" : [ 0.039216, 0.039216, 0.039216, 0.0 ]
				}

			}
, 			{
				"box" : 				{
					"maxclass" : "multislider",
					"presentation" : 1,
					"id" : "obj-51",
					"setminmax" : [ 0.0, 128.0 ],
					"orientation" : 0,
					"numinlets" : 1,
					"slidercolor" : [ 0.062745, 0.356863, 0.709804, 1.0 ],
					"numoutlets" : 2,
					"presentation_rect" : [ 35.693481, 202.0, 261.0, 22.0 ],
					"outlettype" : [ "", "" ],
					"setstyle" : 1,
					"patching_rect" : [ 106.0, 687.0, 135.0, 19.0 ],
					"bgcolor" : [ 0.478431, 0.654902, 0.984314, 1.0 ]
				}

			}
, 			{
				"box" : 				{
					"maxclass" : "multislider",
					"presentation" : 1,
					"id" : "obj-40",
					"setminmax" : [ 0.0, 128.0 ],
					"orientation" : 0,
					"numinlets" : 1,
					"slidercolor" : [ 0.058824, 0.360784, 0.709804, 1.0 ],
					"numoutlets" : 2,
					"presentation_rect" : [ 36.0, 173.0, 261.0, 22.0 ],
					"outlettype" : [ "", "" ],
					"setstyle" : 1,
					"patching_rect" : [ 106.0, 567.0, 135.0, 19.0 ],
					"bgcolor" : [ 0.478431, 0.65098, 0.980392, 1.0 ]
				}

			}
, 			{
				"box" : 				{
					"maxclass" : "textbutton",
					"bordercolor" : [ 0.0, 0.0, 0.0, 0.0 ],
					"presentation" : 1,
					"id" : "obj-90",
					"fontname" : "Arial",
					"textcolor" : [ 0.0, 0.0, 0.0, 1.0 ],
					"bgoveroncolor" : [ 0.0, 0.0, 0.0, 0.0 ],
					"text" : "loudspeaker",
					"bgoncolor" : [ 0.0, 0.0, 0.0, 0.0 ],
					"numinlets" : 1,
					"fontface" : 1,
					"fontsize" : 18.0,
					"numoutlets" : 3,
					"presentation_rect" : [ 62.0, 98.0, 184.0, 25.0 ],
					"textovercolor" : [ 1.0, 1.0, 1.0, 1.0 ],
					"borderoncolor" : [ 0.0, 0.0, 0.0, 0.0 ],
					"outlettype" : [ "", "", "int" ],
					"bgovercolor" : [ 0.0, 0.0, 0.0, 0.0 ],
					"patching_rect" : [ 839.0, 630.870789, 143.0, 21.0 ],
					"bgcolor" : [ 0.0, 0.0, 0.0, 0.0 ]
				}

			}
, 			{
				"box" : 				{
					"maxclass" : "textbutton",
					"bordercolor" : [ 0.0, 0.0, 0.0, 0.0 ],
					"presentation" : 1,
					"id" : "obj-81",
					"fontname" : "Arial",
					"textcolor" : [ 0.0, 0.0, 0.0, 1.0 ],
					"bgoveroncolor" : [ 0.0, 0.0, 0.0, 0.0 ],
					"text" : "sound duration",
					"bgoncolor" : [ 0.0, 0.0, 0.0, 0.0 ],
					"numinlets" : 1,
					"fontface" : 1,
					"fontsize" : 18.0,
					"numoutlets" : 3,
					"presentation_rect" : [ 121.0, 30.0, 177.0, 25.0 ],
					"textovercolor" : [ 1.0, 1.0, 1.0, 1.0 ],
					"align" : 2,
					"borderoncolor" : [ 0.0, 0.0, 0.0, 0.0 ],
					"outlettype" : [ "", "", "int" ],
					"bgovercolor" : [ 0.0, 0.0, 0.0, 0.0 ],
					"patching_rect" : [ 839.0, 511.870789, 143.0, 21.0 ],
					"bgcolor" : [ 0.0, 0.0, 0.0, 0.0 ]
				}

			}
, 			{
				"box" : 				{
					"maxclass" : "multislider",
					"presentation" : 1,
					"id" : "obj-39",
					"setminmax" : [ 0.0, 128.0 ],
					"orientation" : 0,
					"numinlets" : 1,
					"slidercolor" : [ 0.441528, 0.0, 0.673469, 1.0 ],
					"numoutlets" : 2,
					"presentation_rect" : [ 36.0, 101.0, 237.0, 22.0 ],
					"outlettype" : [ "", "" ],
					"setstyle" : 1,
					"patching_rect" : [ 700.0, 697.0, 135.0, 19.0 ],
					"bgcolor" : [ 0.88441, 0.571429, 1.0, 1.0 ]
				}

			}
, 			{
				"box" : 				{
					"maxclass" : "multislider",
					"presentation" : 1,
					"id" : "obj-36",
					"setminmax" : [ 0.0, 128.0 ],
					"numinlets" : 1,
					"slidercolor" : [ 0.441528, 0.0, 0.673469, 1.0 ],
					"numoutlets" : 2,
					"presentation_rect" : [ 302.0, 54.25, 25.0, 169.75 ],
					"outlettype" : [ "", "" ],
					"setstyle" : 1,
					"patching_rect" : [ 605.5, 570.0, 23.0, 129.0 ],
					"bgcolor" : [ 0.88441, 0.571429, 1.0, 1.0 ]
				}

			}
, 			{
				"box" : 				{
					"maxclass" : "textbutton",
					"bordercolor" : [ 0.0, 0.0, 0.0, 0.0 ],
					"presentation" : 1,
					"id" : "obj-72",
					"fontname" : "Arial",
					"textcolor" : [ 0.0, 0.0, 0.0, 1.0 ],
					"bgoveroncolor" : [ 0.0, 0.0, 0.0, 0.0 ],
					"text" : "type of sound",
					"bgoncolor" : [ 0.0, 0.0, 0.0, 0.0 ],
					"numinlets" : 1,
					"fontface" : 1,
					"fontsize" : 18.0,
					"numoutlets" : 3,
					"presentation_rect" : [ 62.0, 68.0, 184.0, 25.0 ],
					"textovercolor" : [ 1.0, 1.0, 1.0, 1.0 ],
					"borderoncolor" : [ 0.0, 0.0, 0.0, 0.0 ],
					"outlettype" : [ "", "", "int" ],
					"bgovercolor" : [ 0.0, 0.0, 0.0, 0.0 ],
					"patching_rect" : [ 836.0, 392.870789, 143.0, 21.0 ],
					"bgcolor" : [ 0.0, 0.0, 0.0, 0.0 ]
				}

			}
, 			{
				"box" : 				{
					"maxclass" : "multislider",
					"presentation" : 1,
					"id" : "obj-22",
					"setminmax" : [ 0.0, 128.0 ],
					"orientation" : 0,
					"numinlets" : 1,
					"slidercolor" : [ 0.88441, 0.571429, 1.0, 1.0 ],
					"numoutlets" : 2,
					"presentation_rect" : [ 36.0, 72.0, 237.0, 22.0 ],
					"outlettype" : [ "", "" ],
					"setstyle" : 1,
					"patching_rect" : [ 697.0, 458.0, 135.0, 19.0 ],
					"bgcolor" : [ 0.441528, 0.0, 0.673469, 1.0 ]
				}

			}
, 			{
				"box" : 				{
					"maxclass" : "textbutton",
					"bordercolor" : [ 0.0, 0.0, 0.0, 0.0 ],
					"presentation" : 1,
					"id" : "obj-49",
					"fontname" : "Arial",
					"textcolor" : [ 0.0, 0.0, 0.0, 1.0 ],
					"bgoveroncolor" : [ 0.0, 0.0, 0.0, 0.0 ],
					"text" : "blue_birds - Mode A",
					"bgoncolor" : [ 0.0, 0.0, 0.0, 0.0 ],
					"numinlets" : 1,
					"fontface" : 1,
					"fontsize" : 18.0,
					"numoutlets" : 3,
					"presentation_rect" : [ 63.0, 137.5, 206.0, 19.0 ],
					"textovercolor" : [ 1.0, 1.0, 1.0, 1.0 ],
					"borderoncolor" : [ 0.0, 0.0, 0.0, 0.403922 ],
					"outlettype" : [ "", "", "int" ],
					"bgovercolor" : [ 0.0, 0.0, 0.0, 0.0 ],
					"patching_rect" : [ 378.0, 683.611511, 184.0, 29.217392 ],
					"bgcolor" : [ 0.0, 0.0, 0.0, 0.0 ]
				}

			}
, 			{
				"box" : 				{
					"maxclass" : "newobj",
					"text" : "r bleu_face_1_max",
					"id" : "obj-8",
					"fontname" : "Arial",
					"numinlets" : 0,
					"fontsize" : 12.0,
					"color" : [ 1.0, 0.94902, 0.0, 1.0 ],
					"numoutlets" : 1,
					"outlettype" : [ "" ],
					"patching_rect" : [ 158.0, 740.0, 113.0, 20.0 ]
				}

			}
, 			{
				"box" : 				{
					"maxclass" : "newobj",
					"text" : "r bleu_face_1_min",
					"id" : "obj-5",
					"fontname" : "Arial",
					"numinlets" : 0,
					"fontsize" : 12.0,
					"color" : [ 1.0, 0.94902, 0.0, 1.0 ],
					"numoutlets" : 1,
					"outlettype" : [ "" ],
					"patching_rect" : [ 109.0, 714.0, 109.0, 20.0 ]
				}

			}
, 			{
				"box" : 				{
					"maxclass" : "newobj",
					"text" : "r violet_face_3_max",
					"id" : "obj-88",
					"fontname" : "Arial",
					"numinlets" : 0,
					"fontsize" : 12.0,
					"color" : [ 1.0, 0.94902, 0.0, 1.0 ],
					"numoutlets" : 1,
					"outlettype" : [ "" ],
					"patching_rect" : [ 1020.0, 602.0, 118.0, 20.0 ]
				}

			}
, 			{
				"box" : 				{
					"maxclass" : "newobj",
					"text" : "r violet_face_2_max",
					"id" : "obj-79",
					"fontname" : "Arial",
					"numinlets" : 0,
					"fontsize" : 12.0,
					"color" : [ 1.0, 0.94902, 0.0, 1.0 ],
					"numoutlets" : 1,
					"outlettype" : [ "" ],
					"patching_rect" : [ 1020.0, 482.0, 118.0, 20.0 ]
				}

			}
, 			{
				"box" : 				{
					"maxclass" : "newobj",
					"text" : "r violet_face_1_max",
					"id" : "obj-70",
					"fontname" : "Arial",
					"numinlets" : 0,
					"fontsize" : 12.0,
					"color" : [ 1.0, 0.94902, 0.0, 1.0 ],
					"numoutlets" : 1,
					"outlettype" : [ "" ],
					"patching_rect" : [ 1017.0, 363.0, 118.0, 20.0 ]
				}

			}
, 			{
				"box" : 				{
					"maxclass" : "newobj",
					"text" : "r violet_face_3_min",
					"id" : "obj-89",
					"fontname" : "Arial",
					"numinlets" : 0,
					"fontsize" : 12.0,
					"color" : [ 1.0, 0.94902, 0.0, 1.0 ],
					"numoutlets" : 1,
					"outlettype" : [ "" ],
					"patching_rect" : [ 680.0, 619.0, 115.0, 20.0 ]
				}

			}
, 			{
				"box" : 				{
					"maxclass" : "newobj",
					"text" : "r violet_face_2_min",
					"id" : "obj-80",
					"fontname" : "Arial",
					"numinlets" : 0,
					"fontsize" : 12.0,
					"color" : [ 1.0, 0.94902, 0.0, 1.0 ],
					"numoutlets" : 1,
					"outlettype" : [ "" ],
					"patching_rect" : [ 680.0, 516.0, 115.0, 20.0 ]
				}

			}
, 			{
				"box" : 				{
					"maxclass" : "newobj",
					"text" : "r violet_face_1_min",
					"id" : "obj-71",
					"fontname" : "Arial",
					"numinlets" : 0,
					"fontsize" : 12.0,
					"color" : [ 1.0, 0.94902, 0.0, 1.0 ],
					"numoutlets" : 1,
					"outlettype" : [ "" ],
					"patching_rect" : [ 662.0, 379.0, 115.0, 20.0 ]
				}

			}
, 			{
				"box" : 				{
					"maxclass" : "newobj",
					"text" : "t b",
					"id" : "obj-37",
					"fontname" : "Arial",
					"numinlets" : 1,
					"fontsize" : 12.0,
					"numoutlets" : 1,
					"outlettype" : [ "bang" ],
					"patching_rect" : [ 523.0, 332.0, 24.0, 20.0 ]
				}

			}
, 			{
				"box" : 				{
					"maxclass" : "newobj",
					"text" : "s mpod_set_ref",
					"id" : "obj-38",
					"fontname" : "Arial",
					"numinlets" : 1,
					"fontsize" : 12.0,
					"color" : [ 1.0, 0.94902, 0.0, 1.0 ],
					"numoutlets" : 0,
					"patching_rect" : [ 522.0, 356.0, 93.0, 20.0 ]
				}

			}
, 			{
				"box" : 				{
					"maxclass" : "newobj",
					"text" : "p OSC_bridge",
					"id" : "obj-7",
					"fontname" : "Arial",
					"numinlets" : 0,
					"fontsize" : 12.0,
					"numoutlets" : 0,
					"patching_rect" : [ 708.0, 290.870789, 87.0, 20.0 ],
					"patcher" : 					{
						"fileversion" : 1,
						"appversion" : 						{
							"major" : 5,
							"minor" : 1,
							"revision" : 9
						}
,
						"rect" : [ 193.0, 71.0, 877.0, 625.0 ],
						"bglocked" : 0,
						"defrect" : [ 193.0, 71.0, 877.0, 625.0 ],
						"openrect" : [ 0.0, 0.0, 0.0, 0.0 ],
						"openinpresentation" : 0,
						"default_fontsize" : 12.0,
						"default_fontface" : 0,
						"default_fontname" : "Arial",
						"gridonopen" : 0,
						"gridsize" : [ 15.0, 15.0 ],
						"gridsnaponopen" : 0,
						"toolbarvisible" : 1,
						"boxanimatetime" : 200,
						"imprint" : 0,
						"enablehscroll" : 1,
						"enablevscroll" : 1,
						"devicewidth" : 0.0,
						"boxes" : [ 							{
								"box" : 								{
									"maxclass" : "newobj",
									"text" : "s front_sliders",
									"id" : "obj-20",
									"fontname" : "Arial",
									"numinlets" : 1,
									"fontsize" : 12.0,
									"color" : [ 1.0, 0.94902, 0.0, 1.0 ],
									"numoutlets" : 0,
									"patching_rect" : [ 315.0, 458.0, 85.0, 20.0 ]
								}

							}
, 							{
								"box" : 								{
									"maxclass" : "newobj",
									"text" : "s transition_sequence",
									"id" : "obj-31",
									"fontname" : "Arial",
									"numinlets" : 1,
									"fontsize" : 12.0,
									"color" : [ 1.0, 0.94902, 0.0, 1.0 ],
									"numoutlets" : 0,
									"patching_rect" : [ 180.0, 458.0, 127.0, 20.0 ]
								}

							}
, 							{
								"box" : 								{
									"maxclass" : "newobj",
									"text" : "r mpod_set_ref",
									"id" : "obj-38",
									"fontname" : "Arial",
									"numinlets" : 0,
									"fontsize" : 12.0,
									"color" : [ 1.0, 0.94902, 0.0, 1.0 ],
									"numoutlets" : 1,
									"outlettype" : [ "" ],
									"patching_rect" : [ 265.0, 24.0, 91.0, 20.0 ]
								}

							}
, 							{
								"box" : 								{
									"maxclass" : "newobj",
									"text" : "udpsend 127.0.0.1 7601",
									"id" : "obj-21",
									"fontname" : "Arial",
									"numinlets" : 1,
									"fontsize" : 12.0,
									"numoutlets" : 0,
									"patching_rect" : [ 265.0, 51.0, 140.0, 20.0 ]
								}

							}
, 							{
								"box" : 								{
									"maxclass" : "newobj",
									"text" : "s violet_face_3_max",
									"id" : "obj-15",
									"fontname" : "Arial",
									"numinlets" : 1,
									"fontsize" : 12.0,
									"color" : [ 1.0, 0.94902, 0.0, 1.0 ],
									"numoutlets" : 0,
									"patching_rect" : [ 420.0, 382.0, 120.0, 20.0 ]
								}

							}
, 							{
								"box" : 								{
									"maxclass" : "newobj",
									"text" : "s violet_face_3_nom",
									"id" : "obj-16",
									"fontname" : "Arial",
									"numinlets" : 1,
									"fontsize" : 12.0,
									"color" : [ 1.0, 0.94902, 0.0, 1.0 ],
									"numoutlets" : 0,
									"patching_rect" : [ 330.0, 407.0, 121.0, 20.0 ]
								}

							}
, 							{
								"box" : 								{
									"maxclass" : "newobj",
									"text" : "s violet_face_3_min",
									"id" : "obj-17",
									"fontname" : "Arial",
									"numinlets" : 1,
									"fontsize" : 12.0,
									"color" : [ 1.0, 0.94902, 0.0, 1.0 ],
									"numoutlets" : 0,
									"patching_rect" : [ 233.0, 380.0, 117.0, 20.0 ]
								}

							}
, 							{
								"box" : 								{
									"maxclass" : "newobj",
									"text" : "s violet_face_3",
									"id" : "obj-18",
									"fontname" : "Arial",
									"numinlets" : 1,
									"fontsize" : 12.0,
									"color" : [ 1.0, 0.94902, 0.0, 1.0 ],
									"numoutlets" : 0,
									"patching_rect" : [ 143.0, 400.0, 91.0, 20.0 ]
								}

							}
, 							{
								"box" : 								{
									"maxclass" : "newobj",
									"text" : "s title_face_3",
									"id" : "obj-19",
									"fontname" : "Arial",
									"numinlets" : 1,
									"fontsize" : 12.0,
									"color" : [ 1.0, 0.94902, 0.0, 1.0 ],
									"numoutlets" : 0,
									"patching_rect" : [ 49.0, 386.0, 81.0, 20.0 ]
								}

							}
, 							{
								"box" : 								{
									"maxclass" : "newobj",
									"text" : "s violet_face_2_max",
									"id" : "obj-10",
									"fontname" : "Arial",
									"numinlets" : 1,
									"fontsize" : 12.0,
									"color" : [ 1.0, 0.94902, 0.0, 1.0 ],
									"numoutlets" : 0,
									"patching_rect" : [ 420.0, 289.0, 120.0, 20.0 ]
								}

							}
, 							{
								"box" : 								{
									"maxclass" : "newobj",
									"text" : "s violet_face_2_nom",
									"id" : "obj-11",
									"fontname" : "Arial",
									"numinlets" : 1,
									"fontsize" : 12.0,
									"color" : [ 1.0, 0.94902, 0.0, 1.0 ],
									"numoutlets" : 0,
									"patching_rect" : [ 330.0, 314.0, 121.0, 20.0 ]
								}

							}
, 							{
								"box" : 								{
									"maxclass" : "newobj",
									"text" : "s violet_face_2_min",
									"id" : "obj-12",
									"fontname" : "Arial",
									"numinlets" : 1,
									"fontsize" : 12.0,
									"color" : [ 1.0, 0.94902, 0.0, 1.0 ],
									"numoutlets" : 0,
									"patching_rect" : [ 233.0, 287.0, 117.0, 20.0 ]
								}

							}
, 							{
								"box" : 								{
									"maxclass" : "newobj",
									"text" : "s violet_face_2",
									"id" : "obj-13",
									"fontname" : "Arial",
									"numinlets" : 1,
									"fontsize" : 12.0,
									"color" : [ 1.0, 0.94902, 0.0, 1.0 ],
									"numoutlets" : 0,
									"patching_rect" : [ 142.0, 307.0, 91.0, 20.0 ]
								}

							}
, 							{
								"box" : 								{
									"maxclass" : "newobj",
									"text" : "s title_face_2",
									"id" : "obj-14",
									"fontname" : "Arial",
									"numinlets" : 1,
									"fontsize" : 12.0,
									"color" : [ 1.0, 0.94902, 0.0, 1.0 ],
									"numoutlets" : 0,
									"patching_rect" : [ 49.0, 293.0, 81.0, 20.0 ]
								}

							}
, 							{
								"box" : 								{
									"maxclass" : "newobj",
									"text" : "s violet_face_1_max",
									"id" : "obj-70",
									"fontname" : "Arial",
									"numinlets" : 1,
									"fontsize" : 12.0,
									"color" : [ 1.0, 0.94902, 0.0, 1.0 ],
									"numoutlets" : 0,
									"patching_rect" : [ 420.0, 207.0, 120.0, 20.0 ]
								}

							}
, 							{
								"box" : 								{
									"maxclass" : "newobj",
									"text" : "s violet_face_1_nom",
									"id" : "obj-73",
									"fontname" : "Arial",
									"numinlets" : 1,
									"fontsize" : 12.0,
									"color" : [ 1.0, 0.94902, 0.0, 1.0 ],
									"numoutlets" : 0,
									"patching_rect" : [ 330.0, 232.0, 121.0, 20.0 ]
								}

							}
, 							{
								"box" : 								{
									"maxclass" : "newobj",
									"text" : "s violet_face_1_min",
									"id" : "obj-71",
									"fontname" : "Arial",
									"numinlets" : 1,
									"fontsize" : 12.0,
									"color" : [ 1.0, 0.94902, 0.0, 1.0 ],
									"numoutlets" : 0,
									"patching_rect" : [ 233.0, 205.0, 117.0, 20.0 ]
								}

							}
, 							{
								"box" : 								{
									"maxclass" : "newobj",
									"text" : "s violet_face_1",
									"id" : "obj-74",
									"fontname" : "Arial",
									"numinlets" : 1,
									"fontsize" : 12.0,
									"color" : [ 1.0, 0.94902, 0.0, 1.0 ],
									"numoutlets" : 0,
									"patching_rect" : [ 142.0, 225.0, 91.0, 20.0 ]
								}

							}
, 							{
								"box" : 								{
									"maxclass" : "newobj",
									"text" : "s title_face_1",
									"id" : "obj-41",
									"fontname" : "Arial",
									"numinlets" : 1,
									"fontsize" : 12.0,
									"color" : [ 1.0, 0.94902, 0.0, 1.0 ],
									"numoutlets" : 0,
									"patching_rect" : [ 49.0, 211.0, 81.0, 20.0 ]
								}

							}
, 							{
								"box" : 								{
									"maxclass" : "newobj",
									"text" : "s numero_sequence",
									"id" : "obj-50",
									"fontname" : "Arial",
									"numinlets" : 1,
									"fontsize" : 12.0,
									"color" : [ 1.0, 0.94902, 0.0, 1.0 ],
									"numoutlets" : 0,
									"patching_rect" : [ 48.0, 458.0, 119.0, 20.0 ]
								}

							}
, 							{
								"box" : 								{
									"maxclass" : "newobj",
									"text" : "route numero_sequence transition_sequence front_sliders",
									"id" : "obj-9",
									"fontname" : "Arial",
									"numinlets" : 1,
									"fontsize" : 12.0,
									"numoutlets" : 4,
									"outlettype" : [ "", "", "", "" ],
									"patching_rect" : [ 48.0, 426.0, 320.0, 20.0 ]
								}

							}
, 							{
								"box" : 								{
									"maxclass" : "newobj",
									"text" : "s bleu_face_1_max",
									"id" : "obj-8",
									"fontname" : "Arial",
									"numinlets" : 1,
									"fontsize" : 12.0,
									"color" : [ 1.0, 0.94902, 0.0, 1.0 ],
									"numoutlets" : 0,
									"patching_rect" : [ 399.0, 121.0, 115.0, 20.0 ]
								}

							}
, 							{
								"box" : 								{
									"maxclass" : "newobj",
									"text" : "s bleu_face_1_nom",
									"id" : "obj-44",
									"fontname" : "Arial",
									"numinlets" : 1,
									"fontsize" : 12.0,
									"color" : [ 1.0, 0.94902, 0.0, 1.0 ],
									"numoutlets" : 0,
									"patching_rect" : [ 315.0, 146.0, 115.0, 20.0 ]
								}

							}
, 							{
								"box" : 								{
									"maxclass" : "newobj",
									"text" : "s bleu_face_1_min",
									"id" : "obj-7",
									"fontname" : "Arial",
									"numinlets" : 1,
									"fontsize" : 12.0,
									"color" : [ 1.0, 0.94902, 0.0, 1.0 ],
									"numoutlets" : 0,
									"patching_rect" : [ 230.0, 121.0, 111.0, 20.0 ]
								}

							}
, 							{
								"box" : 								{
									"maxclass" : "newobj",
									"text" : "s bleu_face_1",
									"id" : "obj-30",
									"fontname" : "Arial",
									"numinlets" : 1,
									"fontsize" : 12.0,
									"color" : [ 1.0, 0.94902, 0.0, 1.0 ],
									"numoutlets" : 0,
									"patching_rect" : [ 146.0, 119.0, 85.0, 20.0 ]
								}

							}
, 							{
								"box" : 								{
									"maxclass" : "newobj",
									"text" : "s espace",
									"id" : "obj-6",
									"fontname" : "Arial",
									"numinlets" : 1,
									"fontsize" : 12.0,
									"color" : [ 1.0, 0.94902, 0.0, 1.0 ],
									"numoutlets" : 0,
									"patching_rect" : [ 62.0, 121.0, 59.0, 20.0 ]
								}

							}
, 							{
								"box" : 								{
									"maxclass" : "newobj",
									"text" : "route title_face_3 violet_face_3 violet_face_3_min violet_face_3_nom violet_face_3_max",
									"id" : "obj-5",
									"fontname" : "Arial",
									"numinlets" : 1,
									"fontsize" : 12.0,
									"numoutlets" : 6,
									"outlettype" : [ "", "", "", "", "", "" ],
									"patching_rect" : [ 50.0, 349.0, 484.0, 20.0 ]
								}

							}
, 							{
								"box" : 								{
									"maxclass" : "newobj",
									"text" : "route title_face_2 violet_face_2 violet_face_2_min violet_face_2_nom violet_face_2_max",
									"id" : "obj-4",
									"fontname" : "Arial",
									"numinlets" : 1,
									"fontsize" : 12.0,
									"numoutlets" : 6,
									"outlettype" : [ "", "", "", "", "", "" ],
									"patching_rect" : [ 50.0, 263.0, 484.0, 20.0 ]
								}

							}
, 							{
								"box" : 								{
									"maxclass" : "newobj",
									"text" : "route title_face_1 violet_face_1 violet_face_1_min violet_face_1_nom violet_face_1_max",
									"id" : "obj-3",
									"fontname" : "Arial",
									"numinlets" : 1,
									"fontsize" : 12.0,
									"numoutlets" : 6,
									"outlettype" : [ "", "", "", "", "", "" ],
									"patching_rect" : [ 49.0, 178.0, 484.0, 20.0 ]
								}

							}
, 							{
								"box" : 								{
									"maxclass" : "newobj",
									"text" : "route espace bleu_face_1 bleu_face_1_min bleu_face_1_nom bleu_face_1_max",
									"id" : "obj-2",
									"fontname" : "Arial",
									"numinlets" : 1,
									"fontsize" : 12.0,
									"numoutlets" : 6,
									"outlettype" : [ "", "", "", "", "", "" ],
									"patching_rect" : [ 62.0, 91.0, 440.0, 20.0 ]
								}

							}
, 							{
								"box" : 								{
									"maxclass" : "newobj",
									"text" : "udpreceive 7600",
									"id" : "obj-1",
									"fontname" : "Arial",
									"numinlets" : 1,
									"fontsize" : 12.0,
									"numoutlets" : 1,
									"outlettype" : [ "" ],
									"patching_rect" : [ 62.0, 14.0, 99.0, 20.0 ]
								}

							}
 ],
						"lines" : [ 							{
								"patchline" : 								{
									"source" : [ "obj-9", 0 ],
									"destination" : [ "obj-50", 0 ],
									"hidden" : 0,
									"midpoints" : [  ]
								}

							}
, 							{
								"patchline" : 								{
									"source" : [ "obj-9", 1 ],
									"destination" : [ "obj-31", 0 ],
									"hidden" : 0,
									"midpoints" : [  ]
								}

							}
, 							{
								"patchline" : 								{
									"source" : [ "obj-9", 2 ],
									"destination" : [ "obj-20", 0 ],
									"hidden" : 0,
									"midpoints" : [  ]
								}

							}
, 							{
								"patchline" : 								{
									"source" : [ "obj-5", 5 ],
									"destination" : [ "obj-9", 0 ],
									"hidden" : 0,
									"midpoints" : [  ]
								}

							}
, 							{
								"patchline" : 								{
									"source" : [ "obj-5", 0 ],
									"destination" : [ "obj-19", 0 ],
									"hidden" : 0,
									"midpoints" : [  ]
								}

							}
, 							{
								"patchline" : 								{
									"source" : [ "obj-5", 1 ],
									"destination" : [ "obj-18", 0 ],
									"hidden" : 0,
									"midpoints" : [  ]
								}

							}
, 							{
								"patchline" : 								{
									"source" : [ "obj-5", 2 ],
									"destination" : [ "obj-17", 0 ],
									"hidden" : 0,
									"midpoints" : [  ]
								}

							}
, 							{
								"patchline" : 								{
									"source" : [ "obj-5", 3 ],
									"destination" : [ "obj-16", 0 ],
									"hidden" : 0,
									"midpoints" : [  ]
								}

							}
, 							{
								"patchline" : 								{
									"source" : [ "obj-5", 4 ],
									"destination" : [ "obj-15", 0 ],
									"hidden" : 0,
									"midpoints" : [  ]
								}

							}
, 							{
								"patchline" : 								{
									"source" : [ "obj-4", 5 ],
									"destination" : [ "obj-5", 0 ],
									"hidden" : 0,
									"midpoints" : [  ]
								}

							}
, 							{
								"patchline" : 								{
									"source" : [ "obj-4", 0 ],
									"destination" : [ "obj-14", 0 ],
									"hidden" : 0,
									"midpoints" : [  ]
								}

							}
, 							{
								"patchline" : 								{
									"source" : [ "obj-4", 1 ],
									"destination" : [ "obj-13", 0 ],
									"hidden" : 0,
									"midpoints" : [  ]
								}

							}
, 							{
								"patchline" : 								{
									"source" : [ "obj-4", 2 ],
									"destination" : [ "obj-12", 0 ],
									"hidden" : 0,
									"midpoints" : [  ]
								}

							}
, 							{
								"patchline" : 								{
									"source" : [ "obj-4", 3 ],
									"destination" : [ "obj-11", 0 ],
									"hidden" : 0,
									"midpoints" : [  ]
								}

							}
, 							{
								"patchline" : 								{
									"source" : [ "obj-4", 4 ],
									"destination" : [ "obj-10", 0 ],
									"hidden" : 0,
									"midpoints" : [  ]
								}

							}
, 							{
								"patchline" : 								{
									"source" : [ "obj-38", 0 ],
									"destination" : [ "obj-21", 0 ],
									"hidden" : 0,
									"midpoints" : [  ]
								}

							}
, 							{
								"patchline" : 								{
									"source" : [ "obj-3", 1 ],
									"destination" : [ "obj-74", 0 ],
									"hidden" : 0,
									"midpoints" : [  ]
								}

							}
, 							{
								"patchline" : 								{
									"source" : [ "obj-3", 3 ],
									"destination" : [ "obj-73", 0 ],
									"hidden" : 0,
									"midpoints" : [  ]
								}

							}
, 							{
								"patchline" : 								{
									"source" : [ "obj-3", 2 ],
									"destination" : [ "obj-71", 0 ],
									"hidden" : 0,
									"midpoints" : [  ]
								}

							}
, 							{
								"patchline" : 								{
									"source" : [ "obj-3", 4 ],
									"destination" : [ "obj-70", 0 ],
									"hidden" : 0,
									"midpoints" : [  ]
								}

							}
, 							{
								"patchline" : 								{
									"source" : [ "obj-3", 0 ],
									"destination" : [ "obj-41", 0 ],
									"hidden" : 0,
									"midpoints" : [  ]
								}

							}
, 							{
								"patchline" : 								{
									"source" : [ "obj-3", 5 ],
									"destination" : [ "obj-4", 0 ],
									"hidden" : 0,
									"midpoints" : [  ]
								}

							}
, 							{
								"patchline" : 								{
									"source" : [ "obj-2", 4 ],
									"destination" : [ "obj-8", 0 ],
									"hidden" : 0,
									"midpoints" : [  ]
								}

							}
, 							{
								"patchline" : 								{
									"source" : [ "obj-2", 2 ],
									"destination" : [ "obj-7", 0 ],
									"hidden" : 0,
									"midpoints" : [  ]
								}

							}
, 							{
								"patchline" : 								{
									"source" : [ "obj-2", 0 ],
									"destination" : [ "obj-6", 0 ],
									"hidden" : 0,
									"midpoints" : [  ]
								}

							}
, 							{
								"patchline" : 								{
									"source" : [ "obj-2", 3 ],
									"destination" : [ "obj-44", 0 ],
									"hidden" : 0,
									"midpoints" : [  ]
								}

							}
, 							{
								"patchline" : 								{
									"source" : [ "obj-2", 1 ],
									"destination" : [ "obj-30", 0 ],
									"hidden" : 0,
									"midpoints" : [  ]
								}

							}
, 							{
								"patchline" : 								{
									"source" : [ "obj-2", 5 ],
									"destination" : [ "obj-3", 0 ],
									"hidden" : 0,
									"midpoints" : [  ]
								}

							}
, 							{
								"patchline" : 								{
									"source" : [ "obj-1", 0 ],
									"destination" : [ "obj-2", 0 ],
									"hidden" : 0,
									"midpoints" : [  ]
								}

							}
 ]
					}
,
					"saved_object_attributes" : 					{
						"fontname" : "Arial",
						"default_fontsize" : 12.0,
						"globalpatchername" : "",
						"fontface" : 0,
						"fontsize" : 12.0,
						"default_fontface" : 0,
						"default_fontname" : "Arial"
					}

				}

			}
, 			{
				"box" : 				{
					"maxclass" : "newobj",
					"text" : "r violet_face_3_nom",
					"id" : "obj-91",
					"fontname" : "Arial",
					"numinlets" : 0,
					"fontsize" : 12.0,
					"color" : [ 1.0, 0.94902, 0.0, 1.0 ],
					"numoutlets" : 1,
					"outlettype" : [ "" ],
					"patching_rect" : [ 839.0, 602.0, 119.0, 20.0 ]
				}

			}
, 			{
				"box" : 				{
					"maxclass" : "newobj",
					"text" : "r violet_face_3",
					"id" : "obj-92",
					"fontname" : "Arial",
					"numinlets" : 0,
					"fontsize" : 12.0,
					"color" : [ 1.0, 0.94902, 0.0, 1.0 ],
					"numoutlets" : 1,
					"outlettype" : [ "" ],
					"patching_rect" : [ 700.0, 648.0, 89.0, 20.0 ]
				}

			}
, 			{
				"box" : 				{
					"maxclass" : "newobj",
					"text" : "r violet_face_2_nom",
					"id" : "obj-82",
					"fontname" : "Arial",
					"numinlets" : 0,
					"fontsize" : 12.0,
					"color" : [ 1.0, 0.94902, 0.0, 1.0 ],
					"numoutlets" : 1,
					"outlettype" : [ "" ],
					"patching_rect" : [ 839.0, 482.0, 119.0, 20.0 ]
				}

			}
, 			{
				"box" : 				{
					"maxclass" : "newobj",
					"text" : "r violet_face_2",
					"id" : "obj-83",
					"fontname" : "Arial",
					"numinlets" : 0,
					"fontsize" : 12.0,
					"color" : [ 1.0, 0.94902, 0.0, 1.0 ],
					"numoutlets" : 1,
					"outlettype" : [ "" ],
					"patching_rect" : [ 605.5, 521.0, 89.0, 20.0 ]
				}

			}
, 			{
				"box" : 				{
					"maxclass" : "newobj",
					"text" : "r violet_face_1_nom",
					"id" : "obj-73",
					"fontname" : "Arial",
					"numinlets" : 0,
					"fontsize" : 12.0,
					"color" : [ 1.0, 0.94902, 0.0, 1.0 ],
					"numoutlets" : 1,
					"outlettype" : [ "" ],
					"patching_rect" : [ 836.0, 363.0, 119.0, 20.0 ]
				}

			}
, 			{
				"box" : 				{
					"maxclass" : "newobj",
					"text" : "r violet_face_1",
					"id" : "obj-74",
					"fontname" : "Arial",
					"numinlets" : 0,
					"fontsize" : 12.0,
					"color" : [ 1.0, 0.94902, 0.0, 1.0 ],
					"numoutlets" : 1,
					"outlettype" : [ "" ],
					"patching_rect" : [ 697.0, 409.0, 89.0, 20.0 ]
				}

			}
, 			{
				"box" : 				{
					"maxclass" : "newobj",
					"text" : "r numero_sequence",
					"id" : "obj-50",
					"fontname" : "Arial",
					"numinlets" : 0,
					"fontsize" : 12.0,
					"color" : [ 1.0, 0.94902, 0.0, 1.0 ],
					"numoutlets" : 1,
					"outlettype" : [ "" ],
					"patching_rect" : [ 378.0, 659.0, 117.0, 20.0 ]
				}

			}
, 			{
				"box" : 				{
					"maxclass" : "newobj",
					"text" : "r bleu_face_1_nom",
					"id" : "obj-44",
					"fontname" : "Arial",
					"numinlets" : 0,
					"fontsize" : 12.0,
					"color" : [ 1.0, 0.94902, 0.0, 1.0 ],
					"numoutlets" : 1,
					"outlettype" : [ "" ],
					"patching_rect" : [ 210.0, 599.0, 113.0, 20.0 ]
				}

			}
, 			{
				"box" : 				{
					"maxclass" : "newobj",
					"text" : "r bleu_face_1",
					"id" : "obj-30",
					"fontname" : "Arial",
					"numinlets" : 0,
					"fontsize" : 12.0,
					"color" : [ 1.0, 0.94902, 0.0, 1.0 ],
					"numoutlets" : 1,
					"outlettype" : [ "" ],
					"patching_rect" : [ 106.0, 638.0, 83.0, 20.0 ]
				}

			}
, 			{
				"box" : 				{
					"maxclass" : "newobj",
					"text" : "r espace",
					"id" : "obj-6",
					"fontname" : "Arial",
					"numinlets" : 0,
					"fontsize" : 12.0,
					"color" : [ 1.0, 0.94902, 0.0, 1.0 ],
					"numoutlets" : 1,
					"outlettype" : [ "" ],
					"patching_rect" : [ 106.0, 521.0, 57.0, 20.0 ]
				}

			}
 ],
		"lines" : [ 			{
				"patchline" : 				{
					"source" : [ "obj-92", 0 ],
					"destination" : [ "obj-39", 0 ],
					"hidden" : 0,
					"midpoints" : [  ]
				}

			}
, 			{
				"patchline" : 				{
					"source" : [ "obj-91", 0 ],
					"destination" : [ "obj-95", 0 ],
					"hidden" : 0,
					"midpoints" : [  ]
				}

			}
, 			{
				"patchline" : 				{
					"source" : [ "obj-91", 0 ],
					"destination" : [ "obj-90", 0 ],
					"hidden" : 0,
					"midpoints" : [  ]
				}

			}
, 			{
				"patchline" : 				{
					"source" : [ "obj-89", 0 ],
					"destination" : [ "obj-94", 0 ],
					"hidden" : 0,
					"midpoints" : [  ]
				}

			}
, 			{
				"patchline" : 				{
					"source" : [ "obj-89", 0 ],
					"destination" : [ "obj-66", 0 ],
					"hidden" : 0,
					"midpoints" : [  ]
				}

			}
, 			{
				"patchline" : 				{
					"source" : [ "obj-88", 0 ],
					"destination" : [ "obj-93", 0 ],
					"hidden" : 0,
					"midpoints" : [  ]
				}

			}
, 			{
				"patchline" : 				{
					"source" : [ "obj-88", 0 ],
					"destination" : [ "obj-87", 0 ],
					"hidden" : 0,
					"midpoints" : [  ]
				}

			}
, 			{
				"patchline" : 				{
					"source" : [ "obj-83", 0 ],
					"destination" : [ "obj-36", 0 ],
					"hidden" : 0,
					"midpoints" : [  ]
				}

			}
, 			{
				"patchline" : 				{
					"source" : [ "obj-82", 0 ],
					"destination" : [ "obj-81", 0 ],
					"hidden" : 0,
					"midpoints" : [  ]
				}

			}
, 			{
				"patchline" : 				{
					"source" : [ "obj-82", 0 ],
					"destination" : [ "obj-100", 0 ],
					"hidden" : 0,
					"midpoints" : [  ]
				}

			}
, 			{
				"patchline" : 				{
					"source" : [ "obj-80", 0 ],
					"destination" : [ "obj-96", 0 ],
					"hidden" : 0,
					"midpoints" : [  ]
				}

			}
, 			{
				"patchline" : 				{
					"source" : [ "obj-80", 0 ],
					"destination" : [ "obj-85", 0 ],
					"hidden" : 0,
					"midpoints" : [  ]
				}

			}
, 			{
				"patchline" : 				{
					"source" : [ "obj-8", 0 ],
					"destination" : [ "obj-61", 0 ],
					"hidden" : 0,
					"midpoints" : [  ]
				}

			}
, 			{
				"patchline" : 				{
					"source" : [ "obj-8", 0 ],
					"destination" : [ "obj-28", 0 ],
					"hidden" : 0,
					"midpoints" : [  ]
				}

			}
, 			{
				"patchline" : 				{
					"source" : [ "obj-79", 0 ],
					"destination" : [ "obj-84", 0 ],
					"hidden" : 0,
					"midpoints" : [  ]
				}

			}
, 			{
				"patchline" : 				{
					"source" : [ "obj-79", 0 ],
					"destination" : [ "obj-68", 0 ],
					"hidden" : 0,
					"midpoints" : [  ]
				}

			}
, 			{
				"patchline" : 				{
					"source" : [ "obj-74", 0 ],
					"destination" : [ "obj-22", 0 ],
					"hidden" : 0,
					"midpoints" : [  ]
				}

			}
, 			{
				"patchline" : 				{
					"source" : [ "obj-73", 0 ],
					"destination" : [ "obj-72", 0 ],
					"hidden" : 0,
					"midpoints" : [  ]
				}

			}
, 			{
				"patchline" : 				{
					"source" : [ "obj-73", 0 ],
					"destination" : [ "obj-101", 0 ],
					"hidden" : 0,
					"midpoints" : [  ]
				}

			}
, 			{
				"patchline" : 				{
					"source" : [ "obj-71", 0 ],
					"destination" : [ "obj-99", 0 ],
					"hidden" : 0,
					"midpoints" : [  ]
				}

			}
, 			{
				"patchline" : 				{
					"source" : [ "obj-71", 0 ],
					"destination" : [ "obj-76", 0 ],
					"hidden" : 0,
					"midpoints" : [  ]
				}

			}
, 			{
				"patchline" : 				{
					"source" : [ "obj-70", 0 ],
					"destination" : [ "obj-98", 0 ],
					"hidden" : 0,
					"midpoints" : [  ]
				}

			}
, 			{
				"patchline" : 				{
					"source" : [ "obj-70", 0 ],
					"destination" : [ "obj-75", 0 ],
					"hidden" : 0,
					"midpoints" : [  ]
				}

			}
, 			{
				"patchline" : 				{
					"source" : [ "obj-6", 0 ],
					"destination" : [ "obj-40", 0 ],
					"hidden" : 0,
					"midpoints" : [  ]
				}

			}
, 			{
				"patchline" : 				{
					"source" : [ "obj-50", 0 ],
					"destination" : [ "obj-62", 0 ],
					"hidden" : 0,
					"midpoints" : [  ]
				}

			}
, 			{
				"patchline" : 				{
					"source" : [ "obj-50", 0 ],
					"destination" : [ "obj-49", 0 ],
					"hidden" : 0,
					"midpoints" : [  ]
				}

			}
, 			{
				"patchline" : 				{
					"source" : [ "obj-5", 0 ],
					"destination" : [ "obj-60", 0 ],
					"hidden" : 0,
					"midpoints" : [  ]
				}

			}
, 			{
				"patchline" : 				{
					"source" : [ "obj-5", 0 ],
					"destination" : [ "obj-2", 0 ],
					"hidden" : 0,
					"midpoints" : [  ]
				}

			}
, 			{
				"patchline" : 				{
					"source" : [ "obj-44", 0 ],
					"destination" : [ "obj-86", 0 ],
					"hidden" : 0,
					"midpoints" : [  ]
				}

			}
, 			{
				"patchline" : 				{
					"source" : [ "obj-44", 0 ],
					"destination" : [ "obj-45", 0 ],
					"hidden" : 0,
					"midpoints" : [  ]
				}

			}
, 			{
				"patchline" : 				{
					"source" : [ "obj-37", 0 ],
					"destination" : [ "obj-38", 0 ],
					"hidden" : 0,
					"midpoints" : [  ]
				}

			}
, 			{
				"patchline" : 				{
					"source" : [ "obj-30", 0 ],
					"destination" : [ "obj-51", 0 ],
					"hidden" : 0,
					"midpoints" : [  ]
				}

			}
 ]
	}

}
